<svg enable-background="new 0 0 64 64" height="64" viewBox="0 0 64 64" width="64" xmlns="http://www.w3.org/2000/svg">
    <path d="m12.005 5h39.99v54h-39.99z" fill="#ac92ec"/>
    <path d="m51.995 59v2l-2 2-2-2-2 2-2-2-2 2-2-2-2 2-2-2-2 2-2-2-2 2-2-2-2 2-2-2-2 2-2-2-2 2-2-2-2 2-1.99-1.99v-.01-2z" fill="#e6e9ed"/>
    <path d="m51.995 3v2h-39.99v-2l1.99-2 2 2 2-2 2 2 2-2 2 2 2-2 2 2 2-2 2 2 2-2 2 2 2-2 2 2 2-2 2 2 2-2 2 2 2-2z" fill="#e6e9ed"/>
    <path d="m40.995 18.99h-5v-5z" fill="#ffd2a6"/>
    <path d="m28.005 13.99v5h-5z" fill="#ffd2a6"/>
    <path d="m42.005 21.99 3.99 4h-7.99z" fill="#f7c292"/>
    <path d="m38.005 25.99h7.99c0 7.73-6.26 14-14 14-7.73 0-14-6.27-14-14h.01 7.99.01 11.99z" fill="#ffce54"/>
    <path d="m22.005 21.99 3.99 4h-7.99z" fill="#f7c292"/>
    <path d="m32.005 19.99 5.99 6h-11.99z" fill="#ffd2a6"/>
    <g fill="#967adc">
        <path d="m42 46.008h-20c-.553 0-1-.447-1-1s.447-1 1-1h20c.553 0 1 .447 1 1s-.447 1-1 1z"/>
        <path d="m42 49.011h-20c-.553 0-1-.447-1-1s.447-1 1-1h20c.553 0 1 .447 1 1s-.447 1-1 1z"/>
        <path d="m37 52.014h-10c-.553 0-1-.447-1-1s.447-1 1-1h10c.553 0 1 .447 1 1s-.447 1-1 1z"/>
    </g>
</svg>
