<svg id="Layer_1" data-name="Layer 1" xmlns="http://www.w3.org/2000/svg" viewBox="0 0 190.42 62">
    <title>
        snack
    </title>
    <path d="M133,310h40v54H133Z" transform="translate(-133 -306)" fill="#ac92ec"/>
    <path d="M173,364v2l-2,2-2-2-2,2-2-2-2,2-2-2-2,2-2-2-2,2-2-2-2,2-2-2-2,2-2-2-2,2-2-2-2,2-2-2-2,2-2-2h0v-2Z" transform="translate(-133 -306)" fill="#e6e9ed"/>
    <path d="M173,308v2H133v-2l2-2,2,2,2-2,2,2,2-2,2,2,2-2,2,2,2-2,2,2,2-2,2,2,2-2,2,2,2-2,2,2,2-2,2,2,2-2Z" transform="translate(-133 -306)" fill="#e6e9ed"/>
    <path d="M162,324h-5v-5Z" transform="translate(-133 -306)" fill="#ffd2a6"/>
    <path d="M149,319v5h-5Z" transform="translate(-133 -306)" fill="#ffd2a6"/>
    <path d="M162.62,327l4,4h-8Z" transform="translate(-133 -306)" fill="#f7c292"/>
    <path d="M158.62,331h8a14,14,0,0,1-28,0h20Z" transform="translate(-133 -306)" fill="#ffce54"/>
    <path d="M142.62,327l4,4h-8Z" transform="translate(-133 -306)" fill="#f7c292"/>
    <path d="M152.62,325l6,6h-12Z" transform="translate(-133 -306)" fill="#ffd2a6"/>
    <path d="M162.62,351h-20a1,1,0,0,1,0-2h20a1,1,0,0,1,0,2Z" transform="translate(-133 -306)" fill="#967adc"/>
    <path d="M162.62,354h-20a1,1,0,0,1,0-2h20a1,1,0,0,1,0,2Z" transform="translate(-133 -306)" fill="#967adc"/>
    <path d="M157.62,357h-10a1,1,0,0,1,0-2h10a1,1,0,0,1,0,2Z" transform="translate(-133 -306)" fill="#967adc"/>
    <path d="M195.82,341.74c-1.53-.52-2.91-1.05-4.16-1.58a12.9,12.9,0,0,1-3.23-2,8.2,8.2,0,0,1-2.1-2.73,8.89,8.89,0,0,1-.76-3.88,8.52,8.52,0,0,1,3.41-7.07q3.41-2.65,9.54-2.65a25.79,25.79,0,0,1,4.16.31,12.64,12.64,0,0,1,3.3,1,5.79,5.79,0,0,1,2.16,1.67,3.74,3.74,0,0,1,.78,2.36,4.23,4.23,0,0,1-.62,2.32,6.53,6.53,0,0,1-1.51,1.63,12.18,12.18,0,0,0-3.07-1.27,15.54,15.54,0,0,0-4.21-.55,7,7,0,0,0-3.43.65A1.9,1.9,0,0,0,195,331.6a1.52,1.52,0,0,0,.67,1.28,7.1,7.1,0,0,0,2,.91l2.76.88a20,20,0,0,1,7.51,4,8.49,8.49,0,0,1,2.62,6.58,8.66,8.66,0,0,1-3.48,7.15q-3.48,2.73-10.24,2.73a23.86,23.86,0,0,1-4.45-.39,13.89,13.89,0,0,1-3.59-1.15,6.55,6.55,0,0,1-2.39-1.87,4.1,4.1,0,0,1-.86-2.57,3.91,3.91,0,0,1,.89-2.58,6.73,6.73,0,0,1,1.92-1.63,14.12,14.12,0,0,0,3.56,2,12.34,12.34,0,0,0,4.6.83,6.17,6.17,0,0,0,3.59-.78,2.22,2.22,0,0,0,1-1.82,1.76,1.76,0,0,0-.83-1.58,10.42,10.42,0,0,0-2.34-1.07Z" transform="translate(-133 -306)" fill="#26232a"/>
    <path d="M230.71,338.26a2.9,2.9,0,0,0-.91-2.37,3.77,3.77,0,0,0-2.47-.75,8.35,8.35,0,0,0-2.05.26,5.1,5.1,0,0,0-1.75.78v18a10.53,10.53,0,0,1-1.63.31,16,16,0,0,1-2.32.16,11.53,11.53,0,0,1-2.05-.16,3.5,3.5,0,0,1-1.54-.62,3.11,3.11,0,0,1-1-1.27,5.64,5.64,0,0,1-.34-2.11v-15.6a4,4,0,0,1,.6-2.29,6.45,6.45,0,0,1,1.64-1.61,14.94,14.94,0,0,1,4.45-2,21.22,21.22,0,0,1,6-.78c3.92,0,6.93.86,9,2.58a8.7,8.7,0,0,1,3.17,7.15v16.27a10.71,10.71,0,0,1-1.64.31,15.81,15.81,0,0,1-2.31.16,11.65,11.65,0,0,1-2.06-.16,3.51,3.51,0,0,1-1.53-.62,2.94,2.94,0,0,1-1-1.27,5.44,5.44,0,0,1-.34-2.11Z" transform="translate(-133 -306)" fill="#26232a"/>
    <path d="M255.41,328.22a21.4,21.4,0,0,1,5.12.57,11.63,11.63,0,0,1,4,1.75,7.78,7.78,0,0,1,2.53,3,9.64,9.64,0,0,1,.88,4.24v11.65a3.25,3.25,0,0,1-.75,2.21,7.91,7.91,0,0,1-1.8,1.48q-3.37,2-9.51,2a22.12,22.12,0,0,1-5-.52,12,12,0,0,1-3.8-1.56,7.28,7.28,0,0,1-2.44-2.65,7.92,7.92,0,0,1-.86-3.75,7,7,0,0,1,2.13-5.51c1.42-1.28,3.63-2.08,6.61-2.39l6.81-.73v-.37a2.21,2.21,0,0,0-1.33-2.15,8.78,8.78,0,0,0-3.82-.65,18.16,18.16,0,0,0-3.85.41,21.4,21.4,0,0,0-3.38,1,3.58,3.58,0,0,1-1.14-1.43,4.55,4.55,0,0,1-.47-2,3.37,3.37,0,0,1,.65-2.16,5.18,5.18,0,0,1,2-1.38,16.19,16.19,0,0,1,3.57-.83A31.43,31.43,0,0,1,255.41,328.22Zm.42,20.44a12,12,0,0,0,1.95-.18,4.65,4.65,0,0,0,1.58-.5v-4.16l-3.74.31a5.69,5.69,0,0,0-2.39.63,1.68,1.68,0,0,0-.94,1.56,2.07,2.07,0,0,0,.81,1.69A4.41,4.41,0,0,0,255.83,348.66Z" transform="translate(-133 -306)" fill="#26232a"/>
    <path d="M287.54,335.19a7.28,7.28,0,0,0-2.47.42,5.53,5.53,0,0,0-2,1.22,5.9,5.9,0,0,0-1.38,2,6.94,6.94,0,0,0-.52,2.81,6.09,6.09,0,0,0,1.84,4.84,6.64,6.64,0,0,0,4.5,1.61,8.79,8.79,0,0,0,2.71-.37,15.84,15.84,0,0,0,2-.78,5.32,5.32,0,0,1,1.56,1.59,3.86,3.86,0,0,1,.52,2.05,3.63,3.63,0,0,1-2,3.3,11.22,11.22,0,0,1-5.62,1.17,17.36,17.36,0,0,1-5.93-1,13.41,13.41,0,0,1-4.55-2.7,12.13,12.13,0,0,1-2.94-4.19,13.73,13.73,0,0,1-1-5.41,15,15,0,0,1,1.12-6,11.68,11.68,0,0,1,3-4.24,13.08,13.08,0,0,1,4.45-2.5,17,17,0,0,1,5.33-.83,10.36,10.36,0,0,1,5.77,1.35,4.08,4.08,0,0,1,2,3.49,3.79,3.79,0,0,1-.47,1.84,6.23,6.23,0,0,1-1.09,1.49,16.58,16.58,0,0,0-2.13-.81A9,9,0,0,0,287.54,335.19Z" transform="translate(-133 -306)" fill="#26232a"/>
    <path d="M323.42,349.7a6.43,6.43,0,0,1-1.43,3.74,4.32,4.32,0,0,1-3.4,1.3,5.6,5.6,0,0,1-3-.8,11.72,11.72,0,0,1-2.8-2.73l-5.15-6.45v9.46l-1.69.29a14.25,14.25,0,0,1-2.26.18,11.65,11.65,0,0,1-2.06-.16,3.46,3.46,0,0,1-1.53-.62,2.94,2.94,0,0,1-1-1.27,5.44,5.44,0,0,1-.34-2.11V320.42c.38-.1.94-.21,1.69-.34a14.16,14.16,0,0,1,2.26-.18,12.55,12.55,0,0,1,2.05.16,3.5,3.5,0,0,1,1.54.62,3.14,3.14,0,0,1,1,1.28,5.39,5.39,0,0,1,.34,2.1v13.73l8.94-9.15a7.24,7.24,0,0,1,4.34,1.19,3.6,3.6,0,0,1,1.64,3,3.68,3.68,0,0,1-.26,1.43,5.28,5.28,0,0,1-.8,1.33,13.36,13.36,0,0,1-1.41,1.43l-2,1.74-3,2.6Z" transform="translate(-133 -306)" fill="#26232a"/>
</svg>
